<?xml version="1.0" encoding="iso-8859-1"?>
<!-- Generator: Adobe Illustrator 19.0.0, SVG Export Plug-In . SVG Version: 6.00 Build 0)  -->
<svg version="1.1" id="Capa_1" xmlns="http://www.w3.org/2000/svg" xmlns:xlink="http://www.w3.org/1999/xlink" x="0px" y="0px"
	 viewBox="0 0 512 512" style="enable-background:new 0 0 512 512;" xml:space="preserve">
<path style="fill:#455A64;" d="M496,223.85H16c-8.837,0-16,7.163-16,16v128c4.845,48.376,47.544,83.958,96,80h320
	c48.456,3.958,91.155-31.624,96-80v-128C512,231.013,504.837,223.85,496,223.85z"/>
<path style="fill:#37474F;" d="M508.16,215.114c-0.192-0.576-0.416-1.152-0.64-1.696l-31.136-93.472
	c0-0.448-0.256-0.896-0.416-1.376C465.01,85.919,434.441,63.9,400,63.85H112c-34.441,0.05-65.01,22.069-75.968,54.72l-0.288,0.992
	L4.352,213.738c-0.184,0.439-0.344,0.888-0.48,1.344C1.376,223.104,0.071,231.449,0,239.85c0,44.183,35.817,80,80,80h352
	c44.183,0,80-35.817,80-80C511.936,231.461,510.642,223.127,508.16,215.114z"/>
<path d="M432,319.85H80c-44.183,0-80-35.817-80-80c0.064-8.389,1.358-16.723,3.84-24.736c0.191-0.599,0.415-1.186,0.672-1.76
	l31.104-93.376c0-0.48,0.256-0.928,0.416-1.408C46.99,85.919,77.559,63.9,112,63.85h288c34.441,0.05,65.01,22.069,75.968,54.72
	c0,0.48,0.288,0.928,0.416,1.376l31.136,93.472c0.224,0.544,0.448,1.12,0.64,1.696c2.482,8.013,3.776,16.347,3.84,24.736
	C512,284.033,476.183,319.85,432,319.85z M34.176,225.418c-1.389,4.687-2.121,9.544-2.176,14.432c0,26.51,21.49,48,48,48h352
	c26.51,0,48-21.49,48-48c-0.057-4.898-0.789-9.766-2.176-14.464l-0.288-0.736l-32-96l-0.32-1.056
	C438.291,108.578,420.237,95.903,400,95.85H112c-20.237,0.053-38.291,12.728-45.216,31.744l-0.32,1.056l-32,96L34.176,225.418z"/>
<path d="M416,447.85H96c-48.451,3.94-91.138-31.633-96-80c0-8.837,7.163-16,16-16s16,7.163,16,16c0,26.464,28.8,48,64,48h320
	c35.2,0,64-21.536,64-48c0-8.837,7.163-16,16-16s16,7.163,16,16C507.138,416.217,464.451,451.79,416,447.85z"/>
<path d="M16,383.85c-8.837,0-16-7.163-16-16v-128c0-8.837,7.163-16,16-16s16,7.163,16,16v128C32,376.686,24.837,383.85,16,383.85z"
	/>
<path d="M496,383.85c-8.837,0-16-7.163-16-16v-128c0-8.837,7.163-16,16-16s16,7.163,16,16v128
	C512,376.686,504.837,383.85,496,383.85z"/>
<g>
	<path style="fill:#FAFAFA;" d="M225.984,191.85H160c-8.837,0-16-7.163-16-16s7.163-16,16-16h65.984c8.837,0,16,7.163,16,16
		S234.821,191.85,225.984,191.85z"/>
	<path style="fill:#FAFAFA;" d="M192,255.85c-8.837,0-16-7.163-16-16v-64c0-8.837,7.163-16,16-16s16,7.163,16,16v64
		C208,248.686,200.837,255.85,192,255.85z"/>
	<path style="fill:#FAFAFA;" d="M320,255.85c-6.055,0-11.591-3.419-14.304-8.832l-32-64c-4.02-7.869-0.899-17.507,6.97-21.527
		s17.507-0.899,21.527,6.97c0.038,0.074,0.075,0.147,0.111,0.221L320,204.074l17.696-35.392c3.898-7.931,13.486-11.2,21.417-7.302
		c7.931,3.898,11.2,13.486,7.302,21.417c-0.036,0.074-0.073,0.148-0.111,0.221l-32,64C331.591,252.431,326.055,255.85,320,255.85z"
		/>
</g>
<g>
</g>
<g>
</g>
<g>
</g>
<g>
</g>
<g>
</g>
<g>
</g>
<g>
</g>
<g>
</g>
<g>
</g>
<g>
</g>
<g>
</g>
<g>
</g>
<g>
</g>
<g>
</g>
<g>
</g>
</svg>
